<svg width="512" height="512" viewBox="0 0 512 512" fill="none" xmlns="http://www.w3.org/2000/svg">
  <rect width="512" height="512" rx="120" fill="#0F172A"/>
  <rect x="36" y="36" width="440" height="440" rx="96" fill="url(#bg)"/>
  <path d="M164 318C164 251.726 217.726 198 284 198H348C348 264.274 294.274 318 228 318H164Z" fill="#FDE68A"/>
  <path d="M164 194C164 159.758 191.758 132 226 132H260C260 166.242 232.242 194 198 194H164Z" fill="#F59E0B"/>
  <path d="M254 124C327.454 124 387 183.546 387 257C387 330.454 327.454 390 254 390C210.991 390 172.752 369.589 148.451 337.891C160.737 348.748 176.883 355.333 194.567 355.333H225.239C279.991 355.333 324.383 310.941 324.383 256.189V243.333H285.9C231.149 243.333 186.756 287.726 186.756 342.477V350.881C154.525 327.514 133.5 289.504 133.5 246.583C133.5 177.251 189.668 121.083 259 121.083L254 124Z" fill="#FEF3C7" fill-opacity="0.95"/>
  <circle cx="336" cy="174" r="28" fill="#FB7185"/>
  <defs>
    <linearGradient id="bg" x1="78" y1="62" x2="446" y2="454" gradientUnits="userSpaceOnUse">
      <stop stop-color="#1F2937"/>
      <stop offset="1" stop-color="#111827"/>
    </linearGradient>
  </defs>
</svg>